# xmcd CD database file
#
# Track frame offsets:
#	150
#	28220
#	49066
#	73351
#	98566
#	119676
#	142591
#	161826
#	181503
#	197057
#
# Disc length: 2969 seconds
#
# Revision: 0
# Processed by: cddbd v1.5.1PL2 Copyright (c) Steve Scherf et al.
# Submitted via: CDex 1.60beta1
#
DISCID=890b970a
DTITLE=TiY - Strange World
DYEAR=1900
DGENRE=未分類 (日本)
TTITLE0=amber
TTITLE1=strange world
TTITLE2=stratus
TTITLE3=static field
TTITLE4=induced
TTITLE5=heptagon
TTITLE6=trick
TTITLE7=droll
TTITLE8=lost labor
TTITLE9=gloom
EXTD=
EXTT0=
EXTT1=
EXTT2=
EXTT3=
EXTT4=
EXTT5=
EXTT6=
EXTT7=
EXTT8=
EXTT9=
PLAYORDER=
